# xmcd
#
# Track frame offsets:
#	150
#	18469
#	33294
#	49287
#	69663
#	85752
#	103976
#	123017
#	139939
#	163064
#	177228
#
# Disc length: 2564 seconds
#
# Revision: 1
# Processed by: cddbd v1.5.2PL0 Copyright (c) Steve Scherf et al.
# Submitted via: audiograbber 1.83.01
#
DISCID=940a020b
DTITLE=Dry County - Dry County
DYEAR=2002
DGENRE=Country Rock
TTITLE0=You Burn The Memories
TTITLE1=Booze On My Breath
TTITLE2=In and Outta Love
TTITLE3=If I´m Not Holding You
TTITLE4=Liar, Liar Me
TTITLE5=Give Yer Head A Shake
TTITLE6=Luckiest Man Alive
TTITLE7=Better Off
TTITLE8=One Last Love Song
TTITLE9=What Ya Got On Tap
TTITLE10=She´s A Freak
EXTD=
EXTT0=
EXTT1=
EXTT2=
EXTT3=
EXTT4=
EXTT5=
EXTT6=
EXTT7=
EXTT8=
EXTT9=
EXTT10=
PLAYORDER=
